<?xml version="1.0" encoding="iso-8859-1"?>
<!-- Generator: Adobe Illustrator 19.0.0, SVG Export Plug-In . SVG Version: 6.00 Build 0)  -->
<svg version="1.1" id="Layer_1" xmlns="http://www.w3.org/2000/svg" xmlns:xlink="http://www.w3.org/1999/xlink" x="0px" y="0px"
	 viewBox="0 0 512 512" style="enable-background:new 0 0 512 512;" xml:space="preserve">
<g>
	<g>
		<g>
			<path d="M256,0C114.618,0,0,114.618,0,256s114.618,256,256,256s256-114.618,256-256S397.382,0,256,0z M256,469.333
				c-117.818,0-213.333-95.515-213.333-213.333S138.182,42.667,256,42.667S469.333,138.182,469.333,256S373.818,469.333,256,469.333
				z"/>
			<path d="M362.667,149.333h-85.333c-11.782,0-21.333,9.551-21.333,21.333v170.667c0,11.782,9.551,21.333,21.333,21.333h85.333
				c11.782,0,21.333-9.551,21.333-21.333V170.667C384,158.885,374.449,149.333,362.667,149.333z M341.333,320h-42.667V192h42.667
				V320z"/>
			<path d="M213.227,168.561c-0.031-0.315-0.09-0.621-0.135-0.932c-0.054-0.378-0.098-0.756-0.173-1.13
				c-0.071-0.358-0.169-0.704-0.258-1.055c-0.081-0.324-0.152-0.649-0.249-0.969c-0.104-0.344-0.233-0.677-0.354-1.013
				c-0.115-0.32-0.22-0.642-0.35-0.957c-0.13-0.314-0.283-0.616-0.428-0.922c-0.153-0.325-0.297-0.652-0.467-0.97
				c-0.157-0.294-0.337-0.573-0.507-0.859c-0.186-0.312-0.362-0.627-0.565-0.931c-0.211-0.316-0.447-0.613-0.674-0.917
				c-0.19-0.253-0.365-0.513-0.568-0.759c-0.892-1.087-1.889-2.085-2.977-2.977c-0.246-0.202-0.506-0.378-0.759-0.568
				c-0.304-0.228-0.601-0.463-0.917-0.674c-0.303-0.203-0.618-0.379-0.929-0.564c-0.286-0.171-0.566-0.351-0.861-0.509
				c-0.317-0.169-0.643-0.313-0.966-0.465c-0.308-0.145-0.611-0.299-0.926-0.43c-0.314-0.13-0.635-0.235-0.953-0.349
				c-0.338-0.122-0.672-0.251-1.018-0.356c-0.318-0.096-0.642-0.167-0.963-0.248c-0.353-0.089-0.702-0.188-1.061-0.259
				c-0.372-0.074-0.747-0.117-1.122-0.171c-0.314-0.045-0.623-0.105-0.941-0.136c-1.4-0.138-2.81-0.138-4.21,0
				c-0.318,0.031-0.627,0.091-0.941,0.136c-0.375,0.054-0.75,0.097-1.122,0.171c-0.36,0.071-0.708,0.17-1.061,0.259
				c-0.322,0.081-0.645,0.151-0.963,0.248c-0.346,0.105-0.68,0.234-1.018,0.356c-0.318,0.114-0.639,0.219-0.953,0.349
				c-0.316,0.131-0.618,0.284-0.926,0.43c-0.323,0.152-0.649,0.296-0.966,0.465c-0.295,0.158-0.575,0.338-0.861,0.509
				c-0.311,0.186-0.626,0.361-0.929,0.564c-0.316,0.211-0.613,0.447-0.917,0.674c-0.253,0.19-0.513,0.365-0.759,0.568
				c-0.544,0.446-1.067,0.916-1.563,1.413l-42.667,42.667c-8.331,8.331-8.331,21.839,0,30.17s21.839,8.331,30.17,0l6.248-6.248
				v119.163c0,11.782,9.551,21.333,21.333,21.333s21.333-9.551,21.333-21.333V170.668
				C213.333,169.965,213.296,169.262,213.227,168.561z"/>
		</g>
	</g>
</g>
<g>
</g>
<g>
</g>
<g>
</g>
<g>
</g>
<g>
</g>
<g>
</g>
<g>
</g>
<g>
</g>
<g>
</g>
<g>
</g>
<g>
</g>
<g>
</g>
<g>
</g>
<g>
</g>
<g>
</g>
</svg>
