<?xml version="1.0" encoding="iso-8859-1"?>
<!-- Generator: Adobe Illustrator 19.0.0, SVG Export Plug-In . SVG Version: 6.00 Build 0)  -->
<svg version="1.1" id="Layer_1" xmlns="http://www.w3.org/2000/svg" xmlns:xlink="http://www.w3.org/1999/xlink" x="0px" y="0px"
	 viewBox="0 0 512 512" style="enable-background:new 0 0 512 512;" xml:space="preserve">
<g>
	<g>
		<g>
			<path d="M256,0C114.618,0,0,114.618,0,256s114.618,256,256,256s256-114.618,256-256S397.382,0,256,0z M256,469.333
				c-117.818,0-213.333-95.515-213.333-213.333S138.182,42.667,256,42.667S469.333,138.182,469.333,256S373.818,469.333,256,469.333
				z"/>
			<path d="M405.333,149.333H320c-11.782,0-21.333,9.551-21.333,21.333v170.667c0,11.782,9.551,21.333,21.333,21.333h85.333
				c11.782,0,21.333-9.551,21.333-21.333V170.667C426.667,158.885,417.115,149.333,405.333,149.333z M384,320h-42.667V192H384V320z"
				/>
			<path d="M256,149.333h-85.333c-11.782,0-21.333,9.551-21.333,21.333v170.667c0,11.782,9.551,21.333,21.333,21.333H256
				c11.782,0,21.333-9.551,21.333-21.333V170.667C277.333,158.885,267.782,149.333,256,149.333z M234.667,320H192V192h42.667V320z"
				/>
			<path d="M106.667,149.333c-11.782,0-21.333,9.551-21.333,21.333v170.667c0,11.782,9.551,21.333,21.333,21.333
				c11.782,0,21.333-9.551,21.333-21.333V170.667C128,158.885,118.449,149.333,106.667,149.333z"/>
		</g>
	</g>
</g>
<g>
</g>
<g>
</g>
<g>
</g>
<g>
</g>
<g>
</g>
<g>
</g>
<g>
</g>
<g>
</g>
<g>
</g>
<g>
</g>
<g>
</g>
<g>
</g>
<g>
</g>
<g>
</g>
<g>
</g>
</svg>
